:SAMPLES-PER-SECOND 25
:FULLY-SPECIFIED
:DEGREES
540
root  -5.05279 65.9171 25.3739 179.469 7.54201 174.489
RightUpLeg  -22.9309 1.96916 -4.86094
RightLeg  58.0835 -4.13257 -7.58468
RightFoot  -5.74468 0.164735 -4.13996
RightToes  2.84633e-005 7.89722e-005 -0.000426369
Spine  2.58162 0.744189 -2.96251
Spine1  5.10475 1.20906 -1.44677
HEad  22.0278 -4.58898 -4.85108
LeftShoulder1  -3.88251e-019 0 -3.92111e-022
LeftArm  -35.5928 7.07442 -78.8111
LeftForeArm  37.2614 1.93613 0.339842
LeftHand  -0.703988 -4.00536 8.96265
RightShoulder  7.45443e-017 -2.42657e-020 1.96277e-018
RightArm  -27.935 -14.8396 74.079
RightForeArm  26.8544 6.08477 6.54348
RightHand  -1.07499 9.39365 -8.79793
LeftUpLeg  -8.80282 -1.11987 -7.33271
LeftLeg  17.7599 1.79068 0.688715
LeftFoot  -13.5705 0.219689 7.0762
LeftToes  3.91355e-005 3.11907e-005 -4.10385e-006
541
root  -5.02214 66.0138 24.5207 -179.896 8.09541 175.517
RightUpLeg  -26.1229 0.670899 -3.45518
RightLeg  52.5626 -5.24086 -7.67703
RightFoot  -7.38221 0.0816271 -3.80284
RightToes  2.84633e-005 7.89722e-005 -0.000426369
Spine  2.23186 0.346067 -2.25336
Spine1  4.50816 0.646241 -0.566235
HEad  22.1875 -4.17055 -5.05937
LeftShoulder1  -3.88251e-019 0 -3.92111e-022
LeftArm  -35.1576 5.66547 -78.7521
LeftForeArm  37.144 1.97615 0.0143121
LeftHand  -0.714055 -3.89579 9.18717
RightShoulder  7.45443e-017 -2.42657e-020 1.96277e-018
RightArm  -27.6383 -15.1056 73.9382
RightForeArm  27.973 6.03924 6.93392
RightHand  -1.07817 9.46878 -8.78118
LeftUpLeg  -8.01785 -1.18227 -6.48879
LeftLeg  18.0155 2.35334 1.0815
LeftFoot  -14.4743 0.286676 7.28643
LeftToes  3.91355e-005 3.11907e-005 -4.10385e-006
542
root  -4.92446 66.0975 23.6728 -179.208 8.50339 176.544
RightUpLeg  -28.002 0.0843323 -2.39273
RightLeg  44.051 -6.27674 -6.76908
RightFoot  -7.75241 0.0379272 -2.92822
RightToes  2.84633e-005 7.89722e-005 -0.000426369
Spine  1.95861 0.0514649 -1.41754
Spine1  4.03343 0.233919 0.265557
HEad  21.8159 -3.92243 -5.26968
LeftShoulder1  -3.88251e-019 0 -3.92111e-022
LeftArm  -34.5121 3.85706 -79.0124
LeftForeArm  37.1215 2.02778 -0.400543
LeftHand  -0.696494 -3.84074 9.01866
RightShoulder  7.45443e-017 -2.42657e-020 1.96277e-018
RightArm  -27.6497 -15.1323 73.7447
RightForeArm  29.5759 5.62178 6.60685
RightHand  -1.12956 9.60035 -9.1038
LeftUpLeg  -7.02764 -1.73339 -5.60462
LeftLeg  17.8111 3.29229 1.57838
LeftFoot  -15.2677 0.354787 7.65237
LeftToes  3.91355e-005 3.11907e-005 -4.10385e-006
543
root  -4.73882 66.1271 22.808 -178.469 8.6254 177.284
RightUpLeg  -28.2871 0.0424716 -1.95706
RightLeg  32.6077 -6.1336 -4.46261
RightFoot  -4.58706 0.0593439 -1.54188
RightToes  2.84633e-005 7.89722e-005 -0.000426369
Spine  1.67485 -0.175907 -0.58166
Spine1  3.47515 -0.155258 0.750953
HEad  21.7055 -3.9881 -5.36771
LeftShoulder1  -3.88251e-019 0 -3.92111e-022
LeftArm  -33.8254 1.73181 -79.4747
LeftForeArm  37.9111 2.05105 -0.721297
LeftHand  -0.678941 -3.98008 8.67697
RightShoulder  7.45443e-017 -2.42657e-020 1.96277e-018
RightArm  -27.9752 -14.9527 73.7231
RightForeArm  30.147 4.65564 5.58237
RightHand  -1.19498 9.69298 -9.55025
LeftUpLeg  -6.07082 -2.28287 -4.84867
LeftLeg  17.5481 3.99518 1.86308
LeftFoot  -15.9793 0.425494 8.12033
LeftToes  3.91355e-005 3.11907e-005 -4.10385e-006
544
root  -4.49127 66.2151 21.9297 -177.746 8.14052 178.1
RightUpLeg  -26.894 0.575044 -1.86845
RightLeg  18.8554 -4.36468 -1.94594
RightFoot  1.36612 0.0813241 -0.652645
RightToes  2.84633e-005 7.89722e-005 -0.000426369
Spine  1.45358 -0.465335 0.445182
Spine1  2.95612 -0.831296 1.31667
HEad  21.9161 -4.20196 -5.37208
LeftShoulder1  -3.88251e-019 0 -3.92111e-022
LeftArm  -33.2952 -0.212156 -80.1796
LeftForeArm  38.8634 2.04036 -0.812336
LeftHand  -0.676334 -4.23012 8.43467
RightShoulder  7.45443e-017 -2.42657e-020 1.96277e-018
RightArm  -28.3998 -14.7288 73.7965
RightForeArm  29.6889 3.5677 4.56101
RightHand  -1.25654 9.74617 -9.98656
LeftUpLeg  -4.83155 -2.50541 -3.78602
LeftLeg  16.7116 3.84757 1.74669
LeftFoot  -16.1054 0.432535 8.05075
LeftToes  3.91355e-005 3.11907e-005 -4.10385e-006
545
root  -4.17855 66.2826 20.9621 -177.355 7.25447 178.758
RightUpLeg  -24.7653 0.109 -1.20935
RightLeg  7.44564 -1.00229 -1.65585
RightFoot  6.38375 -0.0312286 0.462246
RightToes  2.84633e-005 7.89722e-005 -0.000426369
Spine  1.35795 -0.799393 1.30909
Spine1  2.66181 -1.62929 1.79301
HEad  22.2024 -4.42495 -5.30731
LeftShoulder1  -3.88251e-019 0 -3.92111e-022
LeftArm  -32.7943 -1.63257 -80.9689
LeftForeArm  39.0041 2.05782 -0.961708
LeftHand  -0.70195 -4.37615 8.62001
RightShoulder  7.45443e-017 -2.42657e-020 1.96277e-018
RightArm  -28.779 -14.8334 73.8829
RightForeArm  29.3688 3.18078 4.10744
RightHand  -1.25674 9.62634 -10.0631
LeftUpLeg  -3.23187 -2.75966 -2.77462
LeftLeg  15.9905 3.34422 1.55265
LeftFoot  -16.2808 0.423544 7.53748
LeftToes  3.91355e-005 3.11907e-005 -4.10385e-006
546
root  -3.76771 66.2894 19.8359 -177.267 6.65048 179.372
RightUpLeg  -23.2138 0.595194 -0.383372
RightLeg  3.53706 -1.47693 -2.45954
RightFoot  8.66836 0.063946 -0.024401
RightToes  2.84633e-005 7.89722e-005 -0.000426369
Spine  1.30808 -0.982657 1.775
Spine1  2.51241 -2.02149 2.30608
HEad  22.5772 -4.69297 -5.309
LeftShoulder1  -3.88251e-019 0 -3.92111e-022
LeftArm  -32.3608 -2.53133 -81.6912
LeftForeArm  38.6685 2.13096 -1.39262
LeftHand  -0.741511 -4.44123 9.03192
RightShoulder  7.45443e-017 -2.42657e-020 1.96277e-018
RightArm  -28.9983 -15.4625 73.8878
RightForeArm  29.1097 3.68867 4.28173
RightHand  -1.2055 9.36971 -9.82836
LeftUpLeg  -1.23665 -3.16083 -1.7835
LeftLeg  15.6643 3.27977 1.57561
LeftFoot  -16.4296 0.40621 6.90833
LeftToes  3.91355e-005 3.11907e-005 -4.10385e-006
547
root  -3.25967 66.3024 18.6141 -177.354 6.6306 -179.421
RightUpLeg  -21.841 1.88321 1.4056
RightLeg  5.10331 -4.13605 -2.95668
RightFoot  8.37696 0.527164 -2.71554
RightToes  2.84633e-005 7.89722e-005 -0.000426369
Spine  1.31899 -0.977967 2.30005
Spine1  2.51928 -1.97839 3.31993
HEad  23.1258 -4.68253 -5.6657
LeftShoulder1  -3.88251e-019 0 -3.92111e-022
LeftArm  -32.463 -2.81042 -82.5704
LeftForeArm  38.3277 2.20288 -1.75596
LeftHand  -0.768008 -4.50867 9.28363
RightShoulder  7.45443e-017 -2.42657e-020 1.96277e-018
RightArm  -29.0112 -15.842 73.7149
RightForeArm  28.6283 4.11704 4.55565
RightHand  -1.17337 9.26256 -9.64382
LeftUpLeg  0.643517 -3.8491 -0.135497
LeftLeg  16.5741 4.11791 1.865
LeftFoot  -16.219 0.335892 5.59814
LeftToes  3.91355e-005 3.11907e-005 -4.10385e-006
548
root  -2.718 66.3471 17.389 -177.686 6.84846 -177.947
RightUpLeg  -20.0915 3.35519 3.54433
RightLeg  7.43033 -5.67822 -3.18464
RightFoot  5.82253 0.745698 -4.66757
RightToes  2.84633e-005 7.89722e-005 -0.000426369
Spine  1.44317 -1.01567 3.002
Spine1  2.7337 -2.00443 4.44197
HEad  23.9795 -4.02702 -6.30593
LeftShoulder1  -3.88251e-019 0 -3.92111e-022
LeftArm  -33.0018 -2.30447 -83.8166
LeftForeArm  37.3594 1.80902 -1.79599
LeftHand  -0.786938 -4.48372 9.52716
RightShoulder  7.45443e-017 -2.42657e-020 1.96277e-018
RightArm  -28.9317 -15.0441 73.5034
RightForeArm  28.7472 3.5474 4.28915
RightHand  -1.15719 9.27977 -9.50624
LeftUpLeg  1.39085 -4.54975 1.78706
LeftLeg  20.3092 5.00226 2.35884
LeftFoot  -15.6265 0.20669 3.00212
LeftToes  3.91355e-005 3.11907e-005 -4.10385e-006
549
root  -2.23692 66.418 16.2473 -178.107 6.92963 -176.876
RightUpLeg  -18.5516 4.2974 5.05777
RightLeg  9.49913 -6.3326 -3.24096
RightFoot  2.51583 0.592862 -4.71157
RightToes  2.84633e-005 7.89722e-005 -0.000426369
Spine  1.63035 -1.12732 3.66403
Spine1  3.05107 -2.14433 5.16727
HEad  25.187 -3.32482 -6.6702
LeftShoulder1  -3.88251e-019 0 -3.92111e-022
LeftArm  -33.0173 -1.48935 -85.2067
LeftForeArm  35.9662 1.33856 -1.77286
LeftHand  -0.785878 -4.46958 9.52735
RightShoulder  7.45443e-017 -2.42657e-020 1.96277e-018
RightArm  -28.8145 -13.7507 73.4194
RightForeArm  29.255 2.85653 3.84055
RightHand  -1.14163 9.18584 -9.44099
LeftUpLeg  0.0993884 -4.29811 3.23604
LeftLeg  27.4522 5.00015 3.13837
LeftFoot  -13.0891 0.0922828 0.352922
LeftToes  3.91355e-005 3.11907e-005 -4.10385e-006
